<svg width="18" height="19" viewBox="0 0 18 19" fill="none" xmlns="http://www.w3.org/2000/svg">
<g clip-path="url(#clip0_221_651)">
<path d="M3.5 8V14C3.5 14.9428 3.5 15.4142 3.79289 15.7071C4.08579 16 4.55719 16 5.5 16H12.5C13.4428 16 13.9142 16 14.2071 15.7071C14.5 15.4142 14.5 14.9428 14.5 14V8" stroke="#4F4F4F"/>
<path d="M2.5 9L7.58579 3.91421C8.25245 3.24755 8.58579 2.91421 9 2.91421C9.41421 2.91421 9.74755 3.24755 10.4142 3.91421L15.5 9" stroke="#4F4F4F" stroke-linecap="round"/>
<path d="M7.5 13.5C7.5 13.0145 7.50106 12.7006 7.53215 12.4694C7.56131 12.2525 7.60838 12.1845 7.64645 12.1464C7.68451 12.1084 7.75248 12.0613 7.96935 12.0322C8.20061 12.0011 8.51446 12 9 12C9.48554 12 9.79939 12.0011 10.0306 12.0322C10.2475 12.0613 10.3155 12.1084 10.3536 12.1464C10.3916 12.1845 10.4387 12.2525 10.4678 12.4694C10.4989 12.7006 10.5 13.0145 10.5 13.5V16H7.5V13.5Z" stroke="#4F4F4F"/>
<path d="M12.5 4.5C12.5 4.25016 12.5011 4.11308 12.5138 4.01799C12.514 4.01675 12.5142 4.01554 12.5143 4.01435C12.5155 4.01418 12.5167 4.01401 12.518 4.01385C12.6131 4.00106 12.7502 4 13 4C13.2498 4 13.3869 4.00106 13.482 4.01385C13.4833 4.01401 13.4845 4.01418 13.4857 4.01435C13.4858 4.01554 13.486 4.01675 13.4862 4.01799C13.4989 4.11308 13.5 4.25016 13.5 4.5V6.29289L12.9393 5.73223C12.6215 5.41435 12.5673 5.34765 12.5381 5.27713C12.5089 5.20661 12.5 5.12112 12.5 4.67157V4.5Z" stroke="#4F4F4F"/>
</g>
<defs>
<clipPath id="clip0_221_651">
<rect width="18" height="18" fill="white" transform="translate(0 0.5)"/>
</clipPath>
</defs>
</svg>
