<svg width="11" height="13" viewBox="0 0 11 13" fill="none" xmlns="http://www.w3.org/2000/svg">
<path d="M9.70711 11.3435L10.0607 11.697L10.0607 11.697L9.70711 11.3435ZM1.29289 11.3435L0.93934 11.697L0.93934 11.697L1.29289 11.3435ZM3.95453 5.09091V3.04545H2.95453V5.09091H3.95453ZM3.95453 3.04545C3.95453 2.28842 4.06853 1.96092 4.22898 1.79483C4.38522 1.63308 4.70829 1.5 5.49998 1.5V0.5C4.67061 0.5 3.97096 0.622603 3.50974 1.10006C3.05272 1.57317 2.95453 2.2684 2.95453 3.04545H3.95453ZM5.49998 1.5C6.29167 1.5 6.61474 1.63308 6.77099 1.79483C6.93143 1.96092 7.04544 2.28842 7.04544 3.04545H8.04544C8.04544 2.2684 7.94724 1.57317 7.49022 1.10006C7.02901 0.622603 6.32935 0.5 5.49998 0.5V1.5ZM7.04544 3.04545V5.09091H8.04544V3.04545H7.04544ZM3 6H8V5H3V6ZM1.5 9.63636V7.5H0.5V9.63636H1.5ZM8 11.1364H3V12.1364H8V11.1364ZM9.5 7.5V9.63636H10.5V7.5H9.5ZM8 12.1364C8.45727 12.1364 8.85052 12.1374 9.1639 12.0953C9.49165 12.0512 9.80583 11.9519 10.0607 11.697L9.35355 10.9899C9.31549 11.028 9.24752 11.0751 9.03065 11.1042C8.79939 11.1353 8.48554 11.1364 8 11.1364V12.1364ZM9.5 9.63636C9.5 10.1219 9.49894 10.4358 9.46785 10.667C9.43869 10.8839 9.39162 10.9519 9.35355 10.9899L10.0607 11.697C10.3155 11.4422 10.4149 11.128 10.4589 10.8003C10.5011 10.4869 10.5 10.0936 10.5 9.63636H9.5ZM0.5 9.63636C0.5 10.0936 0.498938 10.4869 0.54107 10.8003C0.585136 11.128 0.684509 11.4422 0.93934 11.697L1.64645 10.9899C1.60838 10.9519 1.56131 10.8839 1.53215 10.667C1.50106 10.4358 1.5 10.1219 1.5 9.63636H0.5ZM3 11.1364C2.51446 11.1364 2.20061 11.1353 1.96935 11.1042C1.75248 11.0751 1.68451 11.028 1.64645 10.9899L0.93934 11.697C1.19417 11.9519 1.50835 12.0512 1.8361 12.0953C2.14948 12.1374 2.54273 12.1364 3 12.1364V11.1364ZM8 6C8.48554 6 8.79939 6.00106 9.03065 6.03215C9.24752 6.06131 9.31549 6.10838 9.35355 6.14645L10.0607 5.43934C9.80583 5.18451 9.49165 5.08514 9.1639 5.04107C8.85052 4.99894 8.45727 5 8 5V6ZM10.5 7.5C10.5 7.04273 10.5011 6.64948 10.4589 6.3361C10.4149 6.00835 10.3155 5.69417 10.0607 5.43934L9.35355 6.14645C9.39162 6.18451 9.43869 6.25248 9.46785 6.46935C9.49894 6.70061 9.5 7.01446 9.5 7.5H10.5ZM3 5C2.54273 5 2.14948 4.99894 1.8361 5.04107C1.50835 5.08514 1.19417 5.18451 0.93934 5.43934L1.64645 6.14645C1.68451 6.10838 1.75248 6.06131 1.96935 6.03215C2.20061 6.00106 2.51446 6 3 6V5ZM1.5 7.5C1.5 7.01446 1.50106 6.7006 1.53215 6.46935C1.56131 6.25248 1.60838 6.18451 1.64645 6.14645L0.93934 5.43934C0.684509 5.69417 0.585136 6.00835 0.54107 6.3361C0.498938 6.64948 0.5 7.04273 0.5 7.5H1.5Z" fill="#666666"/>
</svg>
