<svg width="12" height="13" viewBox="0 0 12 13" fill="none" xmlns="http://www.w3.org/2000/svg">
<path d="M11 12.5V11.7C11 11.0489 11 10.7234 10.9249 10.4571C10.736 9.78739 10.2126 9.26397 9.54288 9.07509C9.27663 9 8.95109 9 8.3 9H3.7C3.04891 9 2.72337 9 2.45712 9.07509C1.78739 9.26397 1.26397 9.78739 1.07509 10.4571C1 10.7234 1 11.0489 1 11.7V12.5M8.75 3.75C8.75 5.26878 7.51878 6.5 6 6.5C4.48122 6.5 3.25 5.26878 3.25 3.75C3.25 2.23122 4.48122 1 6 1C7.51878 1 8.75 2.23122 8.75 3.75Z" stroke="#666666" stroke-linecap="round" stroke-linejoin="round"/>
</svg>
